<svg xmlns="http://www.w3.org/2000/svg" xmlns:xlink="http://www.w3.org/1999/xlink" width="297" height="86" viewBox="0 0 297 86">
  <defs>
    <path id="logotype-sberspasibo-color-a" d="M297,43 C297,66.7474 278.135,86 254.865,86 C254.855,86 0,86 0,86 L0,43 C0,19.2526 18.8653,0 42.135,0 C42.135,0 254.855,0 254.865,0 C278.135,0 297,19.2526 297,43 Z"/>
    <radialGradient id="logotype-sberspasibo-color-c" cx="50%" cy="50%" r="50%" fx="50%" fy="50%" gradientTransform="matrix(1 0 0 .99767 0 .001)">
      <stop offset="15%" stop-color="#42E3B4"/>
      <stop offset="100%" stop-color="#42E3B4" stop-opacity="0"/>
    </radialGradient>
    <radialGradient id="logotype-sberspasibo-color-d" cx="50%" cy="50%" r="50%" fx="50%" fy="50%" gradientTransform="matrix(1 0 0 .99768 0 .001)">
      <stop offset="1%" stop-color="#A0E720"/>
      <stop offset="100%" stop-color="#A0E720" stop-opacity="0"/>
    </radialGradient>
    <radialGradient id="logotype-sberspasibo-color-e" cx="50%" cy="50%" r="64.849%" fx="50%" fy="50%" gradientTransform="matrix(.77103 0 0 1 .114 0)">
      <stop offset="10%" stop-color="#FAED00"/>
      <stop offset="100%" stop-color="#FAED00" stop-opacity="0"/>
    </radialGradient>
    <radialGradient id="logotype-sberspasibo-color-f" cx="50%" cy="50%" r="50%" fx="50%" fy="50%" gradientTransform="matrix(1 0 0 .99767 0 .001)">
      <stop offset="15%" stop-color="#00D900"/>
      <stop offset="100%" stop-color="#00D900" stop-opacity="0"/>
    </radialGradient>
    <radialGradient id="logotype-sberspasibo-color-g" cx="50%" cy="50%" r="50%" fx="50%" fy="50%" gradientTransform="matrix(1 0 0 .99767 0 .001)">
      <stop offset="15%" stop-color="#21A038"/>
      <stop offset="100%" stop-color="#21A038" stop-opacity="0"/>
    </radialGradient>
    <radialGradient id="logotype-sberspasibo-color-h" cx="50%" cy="50%" r="50%" fx="50%" fy="50%" gradientTransform="matrix(1 0 0 .99768 0 .001)">
      <stop offset="15%" stop-color="#21A038"/>
      <stop offset="100%" stop-color="#21A038" stop-opacity="0"/>
    </radialGradient>
    <radialGradient id="logotype-sberspasibo-color-i" cx="50%" cy="50%" r="58.198%" fx="50%" fy="50%" gradientTransform="matrix(.85914 0 0 1 .07 0)">
      <stop offset="20%" stop-color="#0087CD"/>
      <stop offset="90%" stop-color="#0087CD" stop-opacity="0"/>
    </radialGradient>
    <radialGradient id="logotype-sberspasibo-color-j" cx="50%" cy="50%" r="64.136%" fx="50%" fy="50%" gradientTransform="matrix(.7796 0 0 1 .11 0)">
      <stop offset="10%" stop-color="#01A7FA"/>
      <stop offset="100%" stop-color="#00ADEE" stop-opacity="0"/>
    </radialGradient>
  </defs>
  <g fill="none" fill-rule="evenodd">
    <mask id="logotype-sberspasibo-color-b" fill="#fff">
      <use xlink:href="#logotype-sberspasibo-color-a"/>
    </mask>
    <g fill-rule="nonzero" mask="url(#logotype-sberspasibo-color-b)">
      <g transform="translate(-99 -100)">
        <polygon fill="#4EDEA3" points="396 100 99 100 99 186 396 186"/>
        <polygon fill="url(#logotype-sberspasibo-color-c)" points="214.5 33.846 49.5 33.846 49.5 199.231 214.5 199.231"/>
        <polygon fill="url(#logotype-sberspasibo-color-d)" points="272.25 95.039 107.25 95.039 107.25 260.423 272.25 260.423"/>
        <polygon fill="url(#logotype-sberspasibo-color-e)" points="214.5 100 0 100 0 265.385 214.5 265.385"/>
        <polygon fill="url(#logotype-sberspasibo-color-f)" points="363 100 198 100 198 265.385 363 265.385"/>
        <polygon fill="url(#logotype-sberspasibo-color-g)" points="429 100 264 100 264 265.385 429 265.385"/>
        <polygon fill="url(#logotype-sberspasibo-color-h)" points="462 58.654 297 58.654 297 224.038 462 224.038"/>
        <polygon fill="url(#logotype-sberspasibo-color-i)" points="429 .769 198 .769 198 199.231 429 199.231"/>
        <polygon fill="url(#logotype-sberspasibo-color-j)" points="330 42.115 181.5 42.115 181.5 157.885 330 157.885"/>
      </g>
    </g>
    <path fill="#FFF" fill-rule="nonzero" d="M42.1346,41.5907 L33.4551,36.1366 L33.4551,42.6974 L42.1346,48.1515 L62.9087,32.8071 C62.1735,31.1819 61.2538,29.6598 60.176,28.2651 L42.1346,41.5907 Z"/>
    <path fill="#FFF" fill-rule="nonzero" d="M64.9317 42.2334C64.9317 40.8362 64.8071 39.4678 64.5652 38.138L59.658 41.7629C59.6628 41.9188 59.6652 42.075 59.6652 42.2309 59.6652 51.9196 51.8 59.8032 42.1338 59.8032 32.4676 59.8032 24.6026 51.9196 24.6026 42.2309 24.6026 32.5422 32.4676 24.6588 42.1338 24.6588 45.7981 24.6588 49.2014 25.7918 52.018 27.7267L56.451 24.4499C52.5377 21.2788 47.5561 19.3799 42.1338 19.3799 29.5435 19.3799 19.3359 29.6112 19.3359 42.2309 19.3359 54.8507 29.5435 65.0819005 42.1338 65.0819005 54.7243 65.0844 64.9317 54.8532 64.9317 42.2334zM109.152 55.5257C107.452 57.571 102.983 59.8108 97.1081 59.8108 86.0336 59.7627 78.6523 53.19 78.6523 42.1881 78.6523 31.9161 85.9379 24.6616 97.2063 24.6616 102.549 24.6616 106.482 26.3156 108.475 27.7295L108.475 36.2012C106.434 33.1836 102.305 30.2622 97.2063 30.2622 89.7747 30.2622 85.2098 35.0825 85.2098 42.2385 85.2098 48.8594 89.2406 54.0685 97.0602 54.215 102.985 54.215 107.162 51.488 109.155 48.0336L109.155 55.5257 109.152 55.5257z"/>
    <polygon fill="#FFF" fill-rule="nonzero" points="130.715 39.949 120.127 39.949 120.127 59.276 114.443 59.276 114.443 34.934 136.396 34.934 136.396 59.276 130.715 59.276"/>
    <path fill="#FFF" fill-rule="nonzero" d="M143.875 36.6372C145.477 35.4202 148.392 34.4456 152.569 34.4456 159.66 34.4456 163.157 36.8797 163.157 43.2076L163.157 59.2721 157.814 59.2721 157.814 54.8911C156.647 57.7142 153.685 59.6611 149.8 59.6611 144.895 59.6611 141.98 56.8859 141.98 52.1161 141.98 46.5659 146.011 45.008 151.984 45.008L157.474 45.008 157.474 43.9373C157.474 40.4804 155.823 39.4099 152.569 39.4099 148.1 39.4099 145.525 41.1623 143.875 43.7428L143.875 36.6372zM157.474 50.7045L157.474 48.7073 152.665 48.7073C149.314 48.7073 147.709 49.3411 147.709 51.5303 147.709 53.3811 149.07 54.5479018 151.594 54.5479018 155.436 54.5502 157.232 52.361 157.474 50.7045zM180.982 59.8111C173.211 59.8111 168.064 55.5259 168.064 47.0063 168.064 38.6332 173.31 34.4467 181.033 34.3962 184.289 34.4442 187.203 35.4188 188.805 36.6359L188.805 43.7439C187.153 41.1634 184.581 39.411 181.033 39.3629 176.371 39.3629 173.846 41.8452 173.846 46.7639L173.846 47.4937C173.846 52.5085 176.564 54.8442 181.131 54.8442 185.162 54.8442 187.835 53.1398 189.049 50.9985L189.049 56.8416C187.977 58.2027 184.916 59.8111 180.982 59.8111z"/>
    <polygon fill="#FFF" fill-rule="nonzero" points="194.291 34.934 199.924 34.934 199.924 51.438 211.58 34.934 216.972 34.934 216.972 59.276 211.339 59.276 211.339 42.577 199.924 58.935 199.682 59.276 194.291 59.276"/>
    <path fill="#FFF" fill-rule="nonzero" d="M245.287 27.3861C244.317 27.9214 241.548 28.3584 237.565 28.6992 229.794 29.4291 228.046 32.497 227.416 39.4587 229.31 36.7315 232.274 34.9311 236.645 34.9311 242.618 34.9311 247.573 37.9487 247.573 46.7611 247.573 55.3768 243.007 59.7603 235.335 59.7603 227.076 59.7603 222.463 54.8439 222.463 43.5971 222.463 30.1612 226.154 24.7575 234.508 23.394 238.248 22.7603 243.299 22.5658 245.291 21.5432L245.291 27.3861 245.287 27.3861zM234.942 54.6014C238.778 54.6014 241.644 52.5561 241.644 47.2508 241.644 42.188 239.265 39.9963 235.186 39.9963 230.911 39.9963 228.287 42.2841 228.287 46.8115 228.287 51.3391 230.523 54.6014 234.942 54.6014zM251.115 47.0063C251.115 38.5853 256.214 34.3962 263.791 34.3962 271.318 34.4442 276.227 38.7292 276.227 47.2008 276.227 55.622 271.125 59.7606 263.598 59.8111 256.019 59.8111 251.115 55.5259 251.115 47.0063zM256.894 47.1529C256.894 52.5085 259.42 54.8442 263.693 54.8442 268.016 54.8442 270.445 52.3621 270.445 47.2008L270.445 47.0544C270.445 41.6988 267.869 39.3629 263.594 39.3629 259.271 39.411 256.892 41.8956 256.892 47.0063L256.892 47.1529 256.894 47.1529z"/>
  </g>
</svg>
