<svg xmlns="http://www.w3.org/2000/svg" width="43" height="25" viewBox="0 0 30 20"><g fill="none"><path fill="#6C6BBD" d="M17.9 15.5h-6.1v-11h6.1z"/><path fill="#0099DF" d="M19.198 3a7.01 7.01 0 0 0-4.339 1.495 6.97 6.97 0 0 1 2.682 5.498 6.97 6.97 0 0 1-2.682 5.498 7.01 7.01 0 0 0 4.34 1.496c3.876 0 7.02-3.131 7.02-6.994 0-3.862-3.144-6.993-7.02-6.993z"/><path fill="#EB001B" d="M14.859 15.491a7.008 7.008 0 0 1-4.339 1.496c-3.877 0-7.02-3.131-7.02-6.994C3.5 6.131 6.643 3 10.52 3c1.638 0 3.145.559 4.339 1.495a6.972 6.972 0 0 0-2.682 5.498 6.972 6.972 0 0 0 2.682 5.498z"/></g></svg>