<svg xmlns="http://www.w3.org/2000/svg" xmlns:xlink="http://www.w3.org/1999/xlink" width="43" height="25" viewBox="0 0 30 20"><defs><path id="a" d="M13.226 6.123c-.014-1.252 1.026-1.95 1.809-2.366.805-.426 1.075-.699 1.072-1.08-.006-.583-.642-.84-1.237-.85-1.038-.018-1.642.305-2.122.548L12.374.471c.482-.241 1.373-.452 2.298-.46 2.17 0 3.59 1.165 3.598 2.972.008 2.293-2.916 2.42-2.896 3.445.007.311.28.643.877.727.295.043 1.112.075 2.037-.388l.363 1.842a5.146 5.146 0 0 1-1.933.386c-2.043 0-3.48-1.181-3.492-2.872m8.916 2.713c-.397 0-.73-.251-.88-.637l-3.1-8.053h2.169l.431 1.297h2.65l.25-1.297h1.912l-1.668 8.69h-1.764m.303-2.348l.626-3.263h-1.714l1.088 3.263M10.597 8.836L8.887.146h2.067l1.709 8.69h-2.066zm-3.057 0L5.389 2.921l-.87 5.03c-.103.561-.506.885-.953.885H.049L0 8.584c.722-.17 1.542-.445 2.039-.74.304-.18.39-.336.49-.763L4.179.146h2.184l3.348 8.69H7.54z"/><linearGradient id="b" x1="16.148%" x2="85.832%" y1="38.087%" y2="62.485%"><stop offset="0%" stop-color="#222357"/><stop offset="100%" stop-color="#254AA5"/></linearGradient></defs><g fill="none" fill-rule="evenodd" transform="matrix(1 0 0 -1 1.88 14.495)"><mask id="c" fill="#fff"><use xlink:href="#a"/></mask><path fill="url(#b)" fill-rule="nonzero" mask="url(#c)" d="M-2.7 7.9L22.5 18l5.8-17L3.1-9.1"/></g></svg>