<svg xmlns="http://www.w3.org/2000/svg" width="43" height="25" viewBox="0 0 30 20">
    <defs>
        <linearGradient id="a" x1="-.02%" x2="99.97%" y1="50.03%" y2="50.03%">
            <stop offset="0%" stop-color="#02AFFF"/>
            <stop offset="100%" stop-color="#1F5BDE"/>
        </linearGradient>
    </defs>
    <g fill="none" fill-rule="nonzero">
        <path fill="#006848"
              d="M16.56 6.823L14.74 10.6h-.183V6h-2.586v7.788h2.194c.576 0 1.101-.32 1.343-.823l1.819-3.778h.184v4.6h2.586V6h-2.194c-.576 0-1.102.32-1.344.823m4.614 2.875v4.09h2.603v-2.3h2.62c1.368 0 2.536-.743 2.986-1.79h-8.21z"/>
        <path fill="url(#a)"
              d="M20.648.607c.008.04.025.088.033.128.009.016.009.032.017.056.467 1.414 1.844 2.436 3.47 2.436h4.806c.033-.16.05-.32.05-.487 0-.8-.359-1.518-.934-2.021A2.915 2.915 0 0 0 26.154 0h-5.598c.008.208.042.415.092.607z"
              transform="translate(.5 6)"/>
        <path fill="#006848"
              d="M4.504 7.022l1.085 3.579h.184l1.076-3.579C7.032 6.415 7.608 6 8.267 6h2.586v7.788H8.267V9.187h-.184l-1.485 4.6H4.755l-1.485-4.6h-.184v4.6H.5V6h2.586c.66 0 1.235.415 1.418 1.022"/>
    </g>
</svg>